PathFileType	4	(X/Y/Z)	C:\Users\°ÂÌØÂü\Desktop\20201223\Trimmed_bx_y_0_501.trc
DataRate	CameraRate	NumFrames	NumMarkers	Units	OrigDataRate	OrigDataStartFrame	OrigNumFrames
50.00	50.00	      6	43	mm	50.00	164	      1306
Frame#	Time	Top.Head			R.Acromium			L.Acromium			Sternum			R.ASIS			L.ASIS			V.Sacral			R.Thigh.Upper			R.Thigh.Front			R.Thigh.Rear			R.Knee.Lat			R.Knee.Med			R.Shank.Upper			R.Shank.Front			R.Shank.Rear			R.Ankle.Lat			R.Midfoot.Lat			R.Toe.Lat			R.Toe.Tip			R.Toe.Med			R.Ankle.Med			R.Midfoot.Sup			R.Heel			L.Thigh.Upper			L.Thigh.Front			L.Thigh.Rear			L.Knee.Lat			L.Knee.Med			L.Shank.Upper			L.Shank.Front			L.Shank.Rear			L.Ankle.Lat			L.Midfoot.Lat			L.Toe.Lat			L.Toe.Tip			L.Toe.Med			L.Ankle.Med			L.Midfoot.Sup			L.Heel			origin1 front left			origin2 front right			origin 3 back right			origin 4 back leftt			
		X1	Y1	Z1	X2	Y2	Z2	X3	Y3	Z3	X4	Y4	Z4	X5	Y5	Z5	X6	Y6	Z6	X7	Y7	Z7	X8	Y8	Z8	X9	Y9	Z9	X10	Y10	Z10	X11	Y11	Z11	X12	Y12	Z12	X13	Y13	Z13	X14	Y14	Z14	X15	Y15	Z15	X16	Y16	Z16	X17	Y17	Z17	X18	Y18	Z18	X19	Y19	Z19	X20	Y20	Z20	X21	Y21	Z21	X22	Y22	Z22	X23	Y23	Z23	X24	Y24	Z24	X25	Y25	Z25	X26	Y26	Z26	X27	Y27	Z27	X28	Y28	Z28	X29	Y29	Z29	X30	Y30	Z30	X31	Y31	Z31	X32	Y32	Z32	X33	Y33	Z33	X34	Y34	Z34	X35	Y35	Z35	X36	Y36	Z36	X37	Y37	Z37	X38	Y38	Z38	X39	Y39	Z39	X40	Y40	Z40	X41	Y41	Z41	X42	Y42	Z42	X43	Y43	Z43	

164	3.260	-652.36481	260.42386	1844.16370	-636.00232	61.21911	1536.22180	-635.48376	455.75687	1517.25659	-533.51428	266.78836	1402.50916	-536.38763	149.48669	1054.23828	-528.94922	385.49319	1056.47778	-729.59033	249.72427	1055.27417	-574.16498	94.48104	890.22650	-526.52020	152.91977	840.50854	-623.91888	91.48414	745.72327	-660.07660	123.06509	595.97345	-632.45172	229.50238	556.49988	-687.92194	123.89214	540.30206	-603.78931	167.93376	540.15790	-725.14374	126.96664	472.88123	-686.69098	146.74783	214.53944	-616.22791	78.53356	168.84215	-571.05676	52.89774	162.82106	-492.14941	92.52364	160.96854	-531.53284	144.56467	164.53827	-632.31689	219.89908	218.69400	-591.55084	189.89648	169.80424	-716.70416	214.91225	169.99678	-569.23248	435.39993	879.71222	-520.20392	374.66025	834.64423	-611.47626	436.37195	746.36420	-657.52069	414.37985	624.19318	-616.77698	313.59656	571.04108	-665.68958	412.63547	561.12115	-609.54016	372.80591	535.98944	-715.44379	414.79443	509.35754	-679.45032	413.73935	212.29465	-585.53705	468.25620	164.69069	-547.32257	479.54181	160.56604	-488.56790	429.59201	169.40108	-524.75299	387.81641	177.91762	-642.94495	326.22083	206.59271	-593.54572	346.38318	168.99690	-732.05872	342.35492	164.28220	-444.04071	448.66849	148.12099	-450.42877	75.44426	144.70377	-806.34619	82.76250	142.48460	-799.16992	457.71527	144.88693	
165	3.280	-652.39862	260.40668	1844.18933	-636.02032	61.23450	1536.23999	-635.38538	455.70618	1517.20911	-533.51941	266.77515	1402.48645	-536.37659	149.44119	1054.27966	-528.96985	385.47974	1056.43054	-729.61517	249.71523	1055.27551	-574.17157	94.45484	890.26013	-526.55939	152.93880	840.51691	-623.96161	91.41994	745.71014	-660.10168	123.05552	595.98737	-632.48016	229.47203	556.44885	-687.90881	123.90134	540.31818	-603.81696	167.92404	540.16785	-725.17432	126.98502	472.86899	-686.67645	146.74072	214.55574	-616.25610	78.53876	168.86282	-571.06433	52.87329	162.86330	-492.14993	92.52345	160.96951	-531.55353	144.60838	164.50089	-632.41187	219.96461	218.45013	-591.50354	189.89313	169.83987	-716.69983	214.92607	170.00954	-569.23694	435.36249	879.68909	-520.16742	374.63782	834.64136	-611.45172	436.32779	746.34509	-657.51239	414.37094	624.18842	-616.78235	313.60623	571.05341	-665.70972	412.60535	561.11707	-609.51428	372.78177	535.98914	-715.46271	414.78769	509.37427	-679.44513	413.71240	212.28160	-585.53912	468.23035	164.72328	-547.32178	479.51935	160.59363	-488.55292	429.58054	169.42157	-524.77991	387.83112	177.89630	-642.92181	326.22922	206.61252	-593.51831	346.37051	169.01428	-732.05151	342.32025	164.25172	-444.04391	448.65530	148.12129	-450.42941	75.43356	144.68468	-806.35449	82.77383	142.46083	-799.16980	457.71255	144.91675	
166	3.300	-652.40710	260.40390	1844.21716	-636.05420	61.25635	1536.26416	-635.31329	455.65225	1517.15869	-533.51984	266.77176	1402.47510	-536.39752	149.39005	1054.29980	-528.99872	385.45407	1056.39539	-729.62738	249.72269	1055.26147	-574.18774	94.42813	890.27942	-526.59332	152.95029	840.53400	-624.03656	91.36729	745.68512	-660.12329	123.04788	596.01233	-632.49463	229.37090	556.31488	-687.90680	123.87834	540.33282	-603.83752	167.91595	540.18207	-725.18195	126.99306	472.84161	-686.68005	146.74431	214.55205	-616.29987	78.55088	168.87952	-571.07855	52.85049	162.87566	-492.15033	92.52234	160.96803	-531.55475	144.61676	164.50310	-632.53040	219.92140	218.31131	-591.42993	189.86752	169.89207	-716.69794	214.93582	169.99951	-569.12946	435.37521	879.77667	-520.11993	374.56647	834.64844	-611.43121	436.26947	746.32562	-657.49921	414.35275	624.17133	-616.76447	313.60077	571.04529	-665.73169	412.57996	561.11499	-609.49030	372.75668	536.00061	-715.48523	414.77853	509.40359	-679.43384	413.64990	212.24649	-585.54236	468.22568	164.75471	-547.31940	479.48849	160.62747	-488.53009	429.56403	169.45203	-524.79767	387.83304	177.88809	-642.92145	326.22977	206.61256	-593.50134	346.35153	169.02396	-732.06256	342.30908	164.24243	-444.04428	448.64365	148.12248	-450.43124	75.43449	144.69202	-806.36267	82.76032	142.46483	-799.15942	457.67349	144.96962	
167	3.320	-652.36682	260.41690	1844.22693	-636.10718	61.27519	1536.28821	-635.28467	455.60104	1517.11975	-533.52136	266.78217	1402.48669	-536.45374	149.34575	1054.29358	-529.02344	385.42523	1056.39233	-729.63617	249.72400	1055.24121	-574.23309	94.40430	890.27106	-526.62189	152.96767	840.55554	-624.11212	91.32527	745.68530	-660.13348	123.03493	596.05701	-632.49738	229.20732	556.10480	-687.91937	123.84158	540.34283	-603.83997	167.91553	540.19183	-725.17975	126.98794	472.80984	-686.69946	146.76166	214.53014	-616.33112	78.56024	168.89583	-571.10931	52.83442	162.86142	-492.14642	92.52728	160.96893	-531.52417	144.59622	164.55479	-632.55219	219.89281	218.28979	-591.37256	189.84756	169.92516	-716.71021	214.92714	169.97424	-568.97290	435.40335	879.91406	-520.10004	374.46436	834.65521	-611.41913	436.20801	746.31421	-657.49176	414.33215	624.15472	-616.73376	313.58124	571.01959	-665.73981	412.56735	561.11823	-609.47675	372.74103	536.02148	-715.50397	414.77286	509.42407	-679.41449	413.56747	212.19885	-585.53320	468.23340	164.77313	-547.30585	479.47260	160.63742	-488.51025	429.55005	169.47823	-524.79718	387.81039	177.89673	-642.94409	326.22269	206.59250	-593.50519	346.34454	169.02892	-732.06470	342.33008	164.24927	-444.03668	448.64285	148.12505	-450.43497	75.44952	144.73219	-806.36145	82.74170	142.49721	-799.13324	457.66446	144.97627	
168	3.340	-652.31793	260.44363	1844.23218	-636.19025	61.28071	1536.30969	-635.30371	455.55200	1517.09229	-533.54230	266.78928	1402.50879	-536.53394	149.32645	1054.27478	-529.04456	385.39798	1056.41626	-729.65430	249.69884	1055.21948	-574.30627	94.38464	890.25269	-526.64893	152.99200	840.57703	-624.17114	91.26486	745.73438	-660.13208	123.02131	596.09985	-632.50287	229.04973	555.90631	-687.94476	123.81767	540.34686	-603.83795	167.91380	540.19049	-725.20233	126.97311	472.79950	-686.73077	146.78728	214.49751	-616.33875	78.56131	168.90881	-571.14362	52.83304	162.82870	-492.13721	92.53788	160.96863	-531.47583	144.56572	164.62778	-632.43140	219.94423	218.39168	-591.33636	189.83356	169.93767	-716.72986	214.91618	169.95070	-568.80859	435.41068	880.05353	-520.12708	374.35529	834.64655	-611.42694	436.15192	746.31787	-657.49744	414.31549	624.14160	-616.70740	313.55670	570.98676	-665.73541	412.56012	561.11786	-609.49072	372.73407	536.03839	-715.51886	414.77451	509.42505	-679.39221	413.51300	212.16307	-585.51001	468.23984	164.77484	-547.28247	479.47430	160.62500	-488.50082	429.54376	169.49036	-524.78174	387.77942	177.90492	-642.95972	326.21768	206.57875	-593.53412	346.36316	169.02408	-732.05597	342.37683	164.26518	-444.02017	448.65714	148.12860	-450.43634	75.46410	144.77129	-806.35010	82.73123	142.53429	-799.11243	457.68329	144.94745	
169	3.360	-652.29675	260.49115	1844.25037	-636.29987	61.27137	1536.33203	-635.37347	455.52768	1517.07825	-533.60406	266.76804	1402.52466	-536.63049	149.33437	1054.25891	-529.07611	385.36469	1056.44470	-729.69067	249.64235	1055.19788	-574.38281	94.36822	890.24481	-526.66821	153.00533	840.59814	-624.21912	91.16444	745.81195	-660.12146	123.01634	596.11224	-632.53094	228.95239	555.79041	-687.97687	123.81043	540.35101	-603.85730	167.89458	540.17804	-725.25439	126.95393	472.82272	-686.76648	146.81215	214.46590	-616.32574	78.55574	168.90401	-571.16809	52.83488	162.79094	-492.12640	92.54802	160.96347	-531.44904	144.54445	164.66899	-632.33087	219.97916	218.46458	-591.32489	189.81905	169.93724	-716.74127	214.92308	169.93831	-568.66748	435.39218	880.17035	-520.20007	374.26712	834.61298	-611.46289	436.11453	746.33844	-657.52374	414.30869	624.13684	-616.69189	313.53482	570.95892	-665.73358	412.54193	561.09735	-609.53821	372.73120	536.04254	-715.53680	414.77057	509.41553	-679.37604	413.52298	212.16130	-585.48682	468.24200	164.75316	-547.25867	479.48080	160.61014	-488.50665	429.54858	169.48189	-524.76361	387.76392	177.89615	-642.94629	326.22183	206.59067	-593.58679	346.40930	168.99629	-732.04749	342.41846	164.28949	-444.00174	448.68173	148.13150	-450.42850	75.46903	144.77271	-806.33569	82.72601	142.55258	-799.13129	457.66400	144.95700	
